<svg version="1.1" id="Layer_1" xmlns="http://www.w3.org/2000/svg" xmlns:xlink="http://www.w3.org/1999/xlink" x="0px" y="0px" width="100px" height="100px" viewBox="0 0 100 100" enable-background="new 0 0 100 100" xml:space="preserve">
    <g>
        <path d="M36.912,43.253c4.822,0,8.745-3.923,8.745-8.745c0-4.822-3.923-8.744-8.745-8.744c-4.822,0-8.745,3.922-8.745,8.744
		C28.167,39.332,32.09,43.253,36.912,43.253z M36.912,27.767c3.719,0,6.745,3.025,6.745,6.744c0,3.719-3.025,6.745-6.745,6.745
		c-3.72,0-6.745-3.025-6.745-6.745C30.167,30.792,33.192,27.767,36.912,27.767z" />
        <path d="M34.931,38.061c0.195,0.195,0.451,0.293,0.707,0.293c0.256,0,0.512-0.098,0.707-0.293l4.755-4.755
		c0.391-0.391,0.391-1.023,0-1.414s-1.023-0.391-1.414,0l-4.048,4.048l-1.744-1.744c-0.391-0.391-1.023-0.391-1.414,0
		c-0.391,0.39-0.391,1.023,0,1.414L34.931,38.061z" />
        <path d="M47.695,33.599h18.43c0.553,0,1-0.448,1-1c0-0.552-0.447-1-1-1h-18.43c-0.552,0-1,0.448-1,1
		C46.695,33.15,47.144,33.599,47.695,33.599z" />
        <path d="M47.695,37.864h18.43c0.553,0,1-0.448,1-1c0-0.552-0.447-1-1-1h-18.43c-0.552,0-1,0.448-1,1
		C46.695,37.416,47.144,37.864,47.695,37.864z" />
        <path d="M36.912,60.9c4.822,0,8.745-3.924,8.745-8.746c0-4.822-3.923-8.745-8.745-8.745c-4.822,0-8.745,3.923-8.745,8.745
		C28.167,56.979,32.09,60.9,36.912,60.9z M36.912,45.412c3.719,0,6.745,3.025,6.745,6.747c0,3.719-3.025,6.744-6.745,6.744
		c-3.72,0-6.745-3.025-6.745-6.744C30.167,48.437,33.192,45.412,36.912,45.412z" />
        <path d="M34.931,55.705c0.195,0.193,0.451,0.293,0.707,0.293c0.256,0,0.512-0.1,0.707-0.293l4.755-4.754
		c0.391-0.393,0.391-1.022,0-1.416s-1.023-0.391-1.414,0l-4.048,4.046l-1.744-1.744c-0.391-0.391-1.023-0.391-1.414,0
		c-0.391,0.393-0.391,1.023,0,1.414L34.931,55.705z" />
        <path d="M47.695,51.244h18.43c0.553,0,1-0.447,1-1c0-0.553-0.447-1-1-1h-18.43c-0.552,0-1,0.448-1,1S47.144,51.244,47.695,51.244z" />
        <path d="M47.695,55.508h18.43c0.553,0,1-0.447,1-1s-0.447-1-1-1h-18.43c-0.552,0-1,0.447-1,1S47.144,55.508,47.695,55.508z" />
        <path d="M36.912,78.547c4.822,0,8.745-3.924,8.745-8.746c0-4.82-3.923-8.742-8.745-8.742c-4.822,0-8.745,3.922-8.745,8.742
		C28.167,74.623,32.09,78.547,36.912,78.547z M36.912,63.059c3.719,0,6.745,3.023,6.745,6.742c0,3.721-3.025,6.746-6.745,6.746
		c-3.72,0-6.745-3.025-6.745-6.746C30.167,66.082,33.192,63.059,36.912,63.059z" />
        <path d="M34.931,73.352c0.195,0.195,0.451,0.293,0.707,0.293c0.256,0,0.512-0.098,0.707-0.293l4.755-4.754
		c0.391-0.393,0.391-1.023,0-1.414c-0.391-0.393-1.023-0.393-1.414,0l-4.048,4.047l-1.744-1.744c-0.391-0.391-1.023-0.391-1.414,0
		c-0.391,0.393-0.391,1.023,0,1.414L34.931,73.352z" />
        <path d="M47.695,68.891h18.43c0.553,0,1-0.447,1-1s-0.447-1-1-1h-18.43c-0.552,0-1,0.447-1,1S47.144,68.891,47.695,68.891z" />
        <path d="M47.695,73.154h18.43c0.553,0,1-0.449,1-1c0-0.553-0.447-1-1-1h-18.43c-0.552,0-1,0.447-1,1
		C46.695,72.705,47.144,73.154,47.695,73.154z" />
        <path d="M20.839,87.938c0,0.553,0.448,1,1,1h11.426c5.272,2.438,10.9,3.678,16.734,3.678c5.834,0,11.461-1.24,16.735-3.678H78.16
		c0.551,0,1-0.447,1-1v-7.984c6.969-7.438,10.809-17.115,10.809-27.307c0-10.192-3.84-19.869-10.809-27.306v-7.985
		c0-0.552-0.449-1-1-1H66.736c-3.92-1.81-8.096-2.956-12.428-3.421c-0.369-3.12-3.027-5.549-6.247-5.549
		c-3.431,0-6.224,2.76-6.288,6.176c-2.952,0.619-5.81,1.55-8.507,2.795H21.839c-0.552,0-1,0.448-1,1v7.985
		c-6.969,7.436-10.808,17.113-10.808,27.305c0,10.189,3.839,19.869,10.808,27.307V87.938z M38.814,88.938h22.369
		C53.979,91.164,46.021,91.164,38.814,88.938z M87.969,52.646c0,8.945-3.111,17.48-8.809,24.301V28.344
		C84.857,35.165,87.969,43.699,87.969,52.646z M58.08,16.354c-0.838-0.409-1.689-0.827-2.43-1.192
		c-0.051-0.025-0.102-0.049-0.15-0.073c1.926,0.278,3.814,0.701,5.658,1.265H58.08z M48.063,9.384c2.367,0,4.295,1.926,4.293,4.283
		c-0.002,0.021-0.008,0.114-0.008,0.135c-0.014,0.348-0.063,0.682-0.145,0.991c-0.125,0.459,0.096,0.943,0.521,1.154
		c0,0,0.086,0.043,0.242,0.12c0.104,0.051,0.236,0.118,0.395,0.197c0.16,0.079,0.344,0.17,0.549,0.272
		c0.922,0.455,2.248,1.109,3.498,1.717c3.529,1.718,3.607,1.718,3.9,1.718c2,0,3.715,1.37,4.174,3.294H30.642
		c0.457-1.924,2.17-3.294,4.171-3.294c0.037,0,0.077,0,0.124-0.003c0.047-0.003,0.103-0.01,0.172-0.024
		c0.034-0.007,0.072-0.015,0.114-0.026c0.055-0.014,0.121-0.033,0.192-0.055c0.52-0.163,1.503-0.573,3.581-1.615l0.001-0.001
		c0.236-0.118,0.473-0.238,0.708-0.358c0.017-0.009,0.034-0.017,0.05-0.026c0.219-0.112,0.435-0.222,0.647-0.332
		c0.019-0.01,0.036-0.019,0.055-0.029c0.438-0.226,0.854-0.444,1.236-0.645c0.031-0.016,0.058-0.031,0.088-0.047
		c0.156-0.082,0.307-0.162,0.448-0.237c0.064-0.034,0.121-0.064,0.182-0.097c0.096-0.051,0.189-0.101,0.275-0.146
		c0.327-0.174,0.587-0.314,0.741-0.397c0.003-0.002,0.005-0.005,0.009-0.007c0.317-0.168,0.539-0.491,0.539-0.875
		c0-0.082-0.033-0.153-0.051-0.229c-0.002-0.01,0-0.021-0.003-0.03c-0.05-0.186-0.088-0.377-0.114-0.572
		c-0.024-0.178-0.039-0.359-0.039-0.543C43.77,11.311,45.695,9.384,48.063,9.384z M28.563,24.48
		c0.101,0.445,0.481,0.784,0.956,0.784h37.007c0.027,0,0.053,0,0.082,0c0.07,0,0.139-0.017,0.209-0.032
		c0.025-0.005,0.049-0.004,0.074-0.011c0.102-0.03,0.199-0.074,0.289-0.137c0.207-0.145,0.348-0.362,0.4-0.604h1.439v56.133H27.006
		V24.48H28.563z M22.839,18.354h9.805c-0.278,0.102-0.544,0.228-0.803,0.366c-0.07,0.038-0.136,0.081-0.204,0.121
		c-0.206,0.12-0.403,0.251-0.593,0.394c-0.072,0.054-0.143,0.106-0.212,0.163c-0.218,0.178-0.425,0.369-0.618,0.575
		c-0.019,0.02-0.041,0.038-0.059,0.058c-0.208,0.229-0.395,0.477-0.567,0.736c-0.047,0.07-0.088,0.144-0.132,0.216
		c-0.124,0.203-0.236,0.412-0.337,0.63c-0.038,0.082-0.077,0.163-0.112,0.247c-0.083,0.201-0.152,0.408-0.214,0.619h-2.787
		c-0.552,0-1,0.448-1,1v58.133c0,0.553,0.448,1,1,1h44.017c0.551,0,1-0.447,1-1V23.48c0-0.552-0.449-1-1-1H67.34
		c-0.027-0.091-0.059-0.181-0.09-0.271c-0.031-0.096-0.07-0.186-0.107-0.28c-0.088-0.22-0.188-0.433-0.295-0.639
		c-0.049-0.091-0.098-0.181-0.15-0.27c-0.137-0.23-0.289-0.449-0.455-0.658c-0.033-0.043-0.063-0.091-0.098-0.133
		c-0.203-0.245-0.428-0.471-0.666-0.682c-0.064-0.057-0.133-0.106-0.201-0.16c-0.184-0.15-0.375-0.29-0.576-0.419
		c-0.088-0.056-0.174-0.109-0.264-0.16c-0.211-0.121-0.43-0.228-0.656-0.324c-0.074-0.032-0.145-0.069-0.221-0.098
		c-0.027-0.01-0.051-0.025-0.078-0.034h3.043h10.633v7.372v53.84v7.371H66.525H33.474H22.839v-7.371V25.727V18.354z M12.032,52.646
		c0-8.949,3.11-17.483,8.808-24.303v48.604C15.142,70.127,12.032,61.594,12.032,52.646z" />
        <path d="M48.063,15.815c1.092,0,1.98-0.889,1.98-1.98s-0.889-1.98-1.98-1.98s-1.98,0.888-1.98,1.98
		C46.083,14.929,46.972,15.815,48.063,15.815z M48.063,13.815v1l-0.02-0.98C48.042,13.826,48.053,13.815,48.063,13.815z" />
    </g>
</svg>
