<svg version="1.1" xmlns="http://www.w3.org/2000/svg" xmlns:xlink="http://www.w3.org/1999/xlink" width="100" height="100" viewBox="0 0 100 100">
    <g id="icomoon-ignore">
        <line stroke-width="1" x1="" y1="" x2="" y2="" stroke="#449FDB" opacity=""></line>
    </g>
    <path d="M56.25 31.25l12.5 12.5-24.999 24.999-12.5-12.5zM97.805 29.053l-7.179-7.179-3.126 3.126c-1.599 1.6-3.81 2.589-6.25 2.589-4.882 0-8.839-3.957-8.839-8.839 0-2.442 0.99-4.652 2.591-6.252l3.124-3.124-7.179-7.179c-2.927-2.927-7.716-2.927-10.642 0l-58.109 58.109c-2.926 2.927-2.926 7.716 0 10.642l7.18 7.179 3.121-3.121c1.6-1.602 3.812-2.593 6.254-2.593 4.882 0 8.839 3.957 8.839 8.839 0 2.442-0.99 4.652-2.591 6.252l-3.123 3.124 7.179 7.179c2.926 2.926 7.716 2.926 10.642 0l58.109-58.109c2.926-2.927 2.926-7.716 0-10.643zM43.75 81.25l-25-25 37.5-37.5 25 25-37.5 37.5z" fill="#000000"></path>
</svg>